<svg width="18" height="23" viewBox="0 0 18 23" fill="none" xmlns="http://www.w3.org/2000/svg">
<g clip-path="url(#clip0_98_557)">
<path d="M17.3571 3.83716H14.0472L12.6812 1.39868C12.2987 0.778943 11.708 0.399658 11.033 0.399658H6.96696C6.29196 0.399658 5.66518 0.778943 5.31964 1.39868L3.95277 3.83716H0.642857C0.286272 3.83716 0 4.14353 0 4.52466V5.21216C0 5.59458 0.286272 5.89966 0.642857 5.89966H1.28571V19.6497C1.28571 21.1686 2.43683 22.3997 3.85714 22.3997H14.1429C15.5632 22.3997 16.7143 21.1686 16.7143 19.6497V5.89966H17.3571C17.7147 5.89966 18 5.59458 18 5.21216V4.52466C18 4.14353 17.7147 3.83716 17.3571 3.83716ZM6.9067 2.58591C6.94687 2.51071 7.02723 2.46216 7.11161 2.46216H10.8884C10.9738 2.46216 11.0541 2.5105 11.0943 2.58569L11.7964 3.83716H6.20357L6.9067 2.58591ZM14.1429 20.3372H3.85714C3.50208 20.3372 3.21429 20.0294 3.21429 19.6497V5.89966H14.7857V19.6497C14.7857 20.0278 14.4964 20.3372 14.1429 20.3372ZM9 18.2747C9.35534 18.2747 9.64286 17.9672 9.64286 17.5872V8.64966C9.64286 8.26964 9.35534 7.96216 9 7.96216C8.64466 7.96216 8.35714 8.27153 8.35714 8.64966V17.5872C8.35714 17.9653 8.64643 18.2747 9 18.2747ZM5.78571 18.2747C6.13929 18.2747 6.42857 17.9653 6.42857 17.5872V8.64966C6.42857 8.26964 6.14105 7.96216 5.78571 7.96216C5.43038 7.96216 5.14286 8.27153 5.14286 8.64966V17.5872C5.14286 17.9653 5.43214 18.2747 5.78571 18.2747ZM12.2143 18.2747C12.5696 18.2747 12.8571 17.9672 12.8571 17.5872V8.64966C12.8571 8.26964 12.5696 7.96216 12.2143 7.96216C11.8589 7.96216 11.5714 8.27153 11.5714 8.64966V17.5872C11.5714 17.9653 11.8607 18.2747 12.2143 18.2747Z" fill="#5E5E5E"/>
</g>
<defs>
<clipPath id="clip0_98_557">
<rect width="18" height="22" fill="white" transform="translate(0 0.399658)"/>
</clipPath>
</defs>
</svg>
