<svg width="26" height="30" viewBox="0 0 26 30" fill="none" xmlns="http://www.w3.org/2000/svg">
<g clip-path="url(#clip0_99_567)">
<path d="M25.0714 4.6875H20.2904L18.3172 1.3623C17.7647 0.517207 16.9116 0 15.9366 0H10.0634C9.08839 0 8.18303 0.517207 7.68393 1.3623L5.70955 4.6875H0.928571C0.413504 4.6875 0 5.10527 0 5.625V6.5625C0 7.08398 0.413504 7.5 0.928571 7.5H1.85714V26.25C1.85714 28.3213 3.51987 30 5.57143 30H20.4286C22.4801 30 24.1429 28.3213 24.1429 26.25V7.5H25.0714C25.5879 7.5 26 7.08398 26 6.5625V5.625C26 5.10527 25.5879 4.6875 25.0714 4.6875ZM9.97634 2.98125C10.0344 2.87871 10.1504 2.8125 10.2723 2.8125H15.7277C15.851 2.8125 15.9671 2.87842 16.0251 2.98096L17.0393 4.6875H8.96071L9.97634 2.98125ZM20.4286 27.1875H5.57143C5.05857 27.1875 4.64286 26.7678 4.64286 26.25V7.5H21.3571V26.25C21.3571 26.7656 20.9393 27.1875 20.4286 27.1875ZM13 24.375C13.5133 24.375 13.9286 23.9557 13.9286 23.4375V11.25C13.9286 10.7318 13.5133 10.3125 13 10.3125C12.4867 10.3125 12.0714 10.7344 12.0714 11.25V23.4375C12.0714 23.9531 12.4893 24.375 13 24.375ZM8.35714 24.375C8.86786 24.375 9.28571 23.9531 9.28571 23.4375V11.25C9.28571 10.7318 8.87041 10.3125 8.35714 10.3125C7.84387 10.3125 7.42857 10.7344 7.42857 11.25V23.4375C7.42857 23.9531 7.84643 24.375 8.35714 24.375ZM17.6429 24.375C18.1561 24.375 18.5714 23.9557 18.5714 23.4375V11.25C18.5714 10.7318 18.1561 10.3125 17.6429 10.3125C17.1296 10.3125 16.7143 10.7344 16.7143 11.25V23.4375C16.7143 23.9531 17.1321 24.375 17.6429 24.375Z" fill="white"/>
</g>
<defs>
<clipPath id="clip0_99_567">
<rect width="26" height="30" fill="white"/>
</clipPath>
</defs>
</svg>
