<svg width="24" height="25" viewBox="0 0 24 25" fill="none" xmlns="http://www.w3.org/2000/svg">
<path d="M19.235 2.14966H4.765C3.103 2.14966 1.75 3.50166 1.75 5.16466V19.6357C1.75 21.2977 3.102 22.6507 4.765 22.6507H19.236C20.898 22.6507 22.251 21.2987 22.251 19.6357V5.16466C22.25 3.50166 20.898 2.14966 19.235 2.14966ZM21.044 19.6347C21.044 20.6317 20.233 21.4437 19.235 21.4437H4.765C3.768 21.4437 2.956 20.6327 2.956 19.6347V17.4537L7.822 12.0467L14.395 18.0217L18.03 14.9927L21.045 17.5047L21.044 19.6347ZM21.044 15.9357L18.029 13.4237L14.428 16.4237L7.737 10.3397L2.956 15.6517V5.16466C2.956 4.16766 3.767 3.35566 4.765 3.35566H19.236C20.233 3.35566 21.045 4.16666 21.045 5.16466L21.044 15.9357Z" fill="white"/>
<path d="M16.2211 11.1936C17.8831 11.1936 19.2361 9.84164 19.2361 8.17864C19.2361 6.51564 17.8841 5.16364 16.2211 5.16364C14.5591 5.16364 13.2061 6.51564 13.2061 8.17864C13.2061 9.84164 14.5581 11.1936 16.2211 11.1936ZM16.2211 6.37064C17.2181 6.37064 18.0301 7.18164 18.0301 8.17964C18.0301 9.17764 17.2191 9.98864 16.2211 9.98864C15.2231 9.98864 14.4121 9.17764 14.4121 8.17964C14.4121 7.18164 15.2231 6.37064 16.2211 6.37064Z" fill="white"/>
</svg>
